# xmcd
# Track frame offsets:
# 150
# 11288
# 21738
# 34200
# 46338
# 57413
# 68763
# 84248
# 102400
# 112625
# 132548
# 146473
# 156913
# 167300
# 181250
# 195763
# 204635
# 216273
# 230398
# 243050
# 253525
# 267963
# 280123
# 298048
# 308510
# 316973
#
# Disc length: 4421 seconds
# Revision: 0
# Processed by: cddbd v1.4PL0 Copyright (c) Steve Scherf et al.
# Submitted via: VisiTrax 2.9.7.197 - For more info visit www.synapsa.com
#
DISCID=6111431a
DTITLE=Various Artist - 70 oz. of Country Christmas
DYEAR=1900
DGENRE=
TTITLE0=George Jones - O Come All Ye Faithful
TTITLE1=Tanya Tucker - Away In A Manger
TTITLE2=Chuck Wagon Gang - The Babe Of Heav'nly Birth
TTITLE3=Lynn Anderson - Mr. Mistletoe
TTITLE4=Charlie Rich - God Rest Ye Merry Gentlemen
TTITLE5=Chuck Wagon Gang - Star Of The East
TTITLE6=Jody Miller - What Child Is This
TTITLE7=Ed Bruce - Sweet Little Jesus Boy
TTITLE8=Chuck Wagon Gang - The First Noel
TTITLE9=Johnny Cash - The Ballad Of The Harp Weaver
TTITLE10=Jody Miller - Cherry Tree Carol
TTITLE11=George Jones - Jingle Bells
TTITLE12=Chuck Wagon Gang - It Came Upon A Midnight Clear
TTITLE13=Tanya Tucker - Silent Night
TTITLE14=Marty Robbins - O Little Town Of Bethlehem
TTITLE15=Charlie Rich - O Holy Night
TTITLE16=Lynn Anderson - A Whistle And A Whisker Away
TTITLE17=Marty Robbins - Hark! The Herald Angels Sing
TTITLE18=Chuck Wagon Gang - While Shepherds Watched Their Flocks
TTITLE19=Tanya Tucker - Silver Bells
TTITLE20=Gene Autry - Rudolph The Red Nosed Reindeer
TTITLE21=Tammy Wynette - Gentle Shepherd
TTITLE22=Ray Price - Little Drummer Boy
TTITLE23=Chuck Wagon Gang - Beautiful Star of Bethlehem
TTITLE24=George Jones - Joy To The World
TTITLE25=Grandpa Jones - Christmas Roses
EXTD=Submitted by: Phil Daniel Sr.
EXTT0=
EXTT1=
EXTT2=
EXTT3=
EXTT4=
EXTT5=
EXTT6=
EXTT7=
EXTT8=
EXTT9=
EXTT10=
EXTT11=
EXTT12=
EXTT13=
EXTT14=
EXTT15=
EXTT16=
EXTT17=
EXTT18=
EXTT19=
EXTT20=
EXTT21=
EXTT22=
EXTT23=
EXTT24=
EXTT25=
PLAYORDER=
